<svg t="1713605704886" class="icon" viewBox="0 0 1024 1024" version="1.1" xmlns="http://www.w3.org/2000/svg" p-id="808" width="200" height="200"><path d="M512 1024C229.69984 1024 0 794.30016 0 511.99872 0 229.69984 229.69984 0 512 0c282.2976 0 511.99872 229.69984 511.99872 511.99872C1023.99744 794.30016 794.2976 1024 512 1024zM512 48.75008c-255.39968 0-463.24992 207.82464-463.24992 463.24864 0 255.42528 207.84896 463.2512 463.24992 463.2512 255.40224 0 463.2512-207.82592 463.2512-463.2512C975.24992 256.57472 767.40096 48.75008 512 48.75008zM798.4 418.24896 765.49888 379.02336 412.7488 675.02592 264.8 498.72512 225.6 531.64928 373.49888 707.9232 373.2992 708.12672 406.19776 747.34848 406.39872 747.15136 406.5984 747.34848 445.79968 714.44864 445.64864 714.24896Z" fill="#272636" p-id="809"></path></svg>